<?xml version="1.0" encoding="UTF-8"?>
<svg xmlns="http://www.w3.org/2000/svg" xmlns:xlink="http://www.w3.org/1999/xlink"
     width="350" height="524" viewBox="0 -20 350 524">
<defs>
</defs>
<rect x="0" y="-10" width="350" height="10" fill="#ffffff" />
<rect x="0" y="-10" width="5" height="10" fill="#c6f0e8" />
<rect x="0" y="2" width="350" height="10" fill="#ffffff" />
<rect x="0" y="2" width="0" height="10" fill="#c6f0e8" />
<rect x="0" y="14" width="350" height="10" fill="#ffffff" />
<rect x="0" y="14" width="175" height="10" fill="#c6f0e8" />
<rect x="0" y="26" width="350" height="10" fill="#ffffff" />
<rect x="0" y="26" width="0" height="10" fill="#c6f0e8" />
<rect x="0" y="38" width="350" height="10" fill="#ffffff" />
<rect x="0" y="38" width="120" height="10" fill="#c6f0e8" />
<rect x="0" y="50" width="350" height="10" fill="#ffffff" />
<rect x="0" y="50" width="145" height="10" fill="#c6f0e8" />
<rect x="0" y="62" width="350" height="10" fill="#ffffff" />
<rect x="0" y="62" width="0" height="10" fill="#c6f0e8" />
<rect x="0" y="74" width="350" height="10" fill="#ffffff" />
<rect x="0" y="74" width="145" height="10" fill="#c6f0e8" />
<rect x="0" y="86" width="350" height="10" fill="#ffffff" />
<rect x="0" y="86" width="105" height="10" fill="#c6f0e8" />
<rect x="0" y="98" width="350" height="10" fill="#ffffff" />
<rect x="0" y="98" width="0" height="10" fill="#c6f0e8" />
<rect x="0" y="110" width="350" height="10" fill="#ffffff" />
<rect x="0" y="110" width="105" height="10" fill="#c6f0e8" />
<rect x="0" y="122" width="350" height="10" fill="#ffffff" />
<rect x="0" y="122" width="0" height="10" fill="#c6f0e8" />
<rect x="0" y="134" width="350" height="10" fill="#ffffff" />
<rect x="0" y="134" width="150" height="10" fill="#c6f0e8" />
<rect x="0" y="146" width="350" height="10" fill="#ffffff" />
<rect x="0" y="146" width="90" height="10" fill="#c6f0e8" />
<rect x="0" y="158" width="350" height="10" fill="#ffffff" />
<rect x="0" y="158" width="0" height="10" fill="#c6f0e8" />
<rect x="0" y="170" width="350" height="10" fill="#ffffff" />
<rect x="0" y="170" width="125" height="10" fill="#c6f0e8" />
<rect x="0" y="182" width="350" height="10" fill="#ffffff" />
<rect x="0" y="182" width="0" height="10" fill="#c6f0e8" />
<rect x="0" y="194" width="350" height="10" fill="#ffffff" />
<rect x="0" y="194" width="120" height="10" fill="#c6f0e8" />
<rect x="0" y="206" width="350" height="10" fill="#ffffff" />
<rect x="0" y="206" width="125" height="10" fill="#c6f0e8" />
<rect x="0" y="218" width="350" height="10" fill="#ffffff" />
<rect x="0" y="218" width="0" height="10" fill="#c6f0e8" />
<rect x="0" y="230" width="350" height="10" fill="#ffffff" />
<rect x="0" y="230" width="135" height="10" fill="#c6f0e8" />
<rect x="0" y="242" width="350" height="10" fill="#ffffff" />
<rect x="0" y="242" width="80" height="10" fill="#c6f0e8" />
<rect x="0" y="254" width="350" height="10" fill="#ffffff" />
<rect x="0" y="254" width="0" height="10" fill="#c6f0e8" />
<rect x="0" y="266" width="350" height="10" fill="#ffffff" />
<rect x="0" y="266" width="130" height="10" fill="#c6f0e8" />
<rect x="0" y="278" width="350" height="10" fill="#ffffff" />
<rect x="0" y="278" width="0" height="10" fill="#c6f0e8" />
<rect x="0" y="290" width="350" height="10" fill="#ffffff" />
<rect x="0" y="290" width="5" height="10" fill="#c6f0e8" />
<rect x="0" y="302" width="350" height="10" fill="#ffffff" />
<rect x="0" y="302" width="0" height="10" fill="#c6f0e8" />
<rect x="0" y="314" width="350" height="10" fill="#ffffff" />
<rect x="0" y="314" width="125" height="10" fill="#c6f0e8" />
<rect x="0" y="326" width="350" height="10" fill="#ffffff" />
<rect x="0" y="326" width="85" height="10" fill="#c6f0e8" />
<rect x="0" y="338" width="350" height="10" fill="#ffffff" />
<rect x="0" y="338" width="0" height="10" fill="#c6f0e8" />
<rect x="0" y="350" width="350" height="10" fill="#ffffff" />
<rect x="0" y="350" width="110" height="10" fill="#c6f0e8" />
<rect x="0" y="362" width="350" height="10" fill="#ffffff" />
<rect x="0" y="362" width="105" height="10" fill="#c6f0e8" />
<rect x="0" y="374" width="350" height="10" fill="#ffffff" />
<rect x="0" y="374" width="0" height="10" fill="#c6f0e8" />
<rect x="0" y="386" width="350" height="10" fill="#ffffff" />
<rect x="0" y="386" width="110" height="10" fill="#c6f0e8" />
<rect x="0" y="398" width="350" height="10" fill="#ffffff" />
<rect x="0" y="398" width="0" height="10" fill="#c6f0e8" />
<rect x="0" y="410" width="350" height="10" fill="#ffffff" />
<rect x="0" y="410" width="135" height="10" fill="#c6f0e8" />
<rect x="0" y="422" width="350" height="10" fill="#ffffff" />
<rect x="0" y="422" width="85" height="10" fill="#c6f0e8" />
<rect x="0" y="434" width="350" height="10" fill="#ffffff" />
<rect x="0" y="434" width="0" height="10" fill="#c6f0e8" />
<rect x="0" y="446" width="350" height="10" fill="#ffffff" />
<rect x="0" y="446" width="110" height="10" fill="#c6f0e8" />
<rect x="0" y="458" width="350" height="10" fill="#ffffff" />
<rect x="0" y="458" width="105" height="10" fill="#c6f0e8" />
<rect x="0" y="470" width="350" height="10" fill="#ffffff" />
<rect x="0" y="470" width="0" height="10" fill="#c6f0e8" />
<rect x="0" y="482" width="350" height="10" fill="#ffffff" />
<rect x="0" y="482" width="90" height="10" fill="#c6f0e8" />
</svg>